solid Sphere
facet normal 0.000000 0.718617 0.695406
    outer loop
        vertex -20.177411 65.295472 73.002557
        vertex 20.177411 65.295472 73.002557
        vertex 0.000000 85.065081 52.573111
    endloop
endfacet
facet normal 0.204760 0.457141 0.865503
    outer loop
        vertex 0.000000 35.682209 93.417236
        vertex 40.354821 32.647736 85.472883
        vertex 20.177411 65.295472 73.002557
    endloop
endfacet
facet normal 0.366481 0.125638 0.921904
    outer loop
        vertex 20.177411 0.000000 97.943209
        vertex 52.573111 0.000000 85.065081
        vertex 40.354821 32.647736 85.472883
    endloop
endfacet
facet normal -0.204760 0.457141 0.865503
    outer loop
        vertex -40.354821 32.647736 85.472883
        vertex 0.000000 35.682209 93.417236
        vertex -20.177411 65.295472 73.002557
    endloop
endfacet
facet normal 0.000000 0.125833 0.992051
    outer loop
        vertex -20.177411 0.000000 97.943209
        vertex 20.177411 0.000000 97.943209
        vertex 0.000000 35.682209 93.417236
    endloop
endfacet
facet normal -0.366481 0.125638 0.921904
    outer loop
        vertex -52.573111 0.000000 85.065081
        vertex -20.177411 0.000000 97.943209
        vertex -40.354821 32.647736 85.472883
    endloop
endfacet
facet normal -0.000000 0.567577 0.823320
    outer loop
        vertex 20.177411 65.295472 73.002557
        vertex -20.177411 65.295472 73.002557
        vertex 0.000000 35.682209 93.417236
    endloop
endfacet
facet normal 0.204760 0.236269 0.949869
    outer loop
        vertex 40.354821 32.647736 85.472883
        vertex 0.000000 35.682209 93.417236
        vertex 20.177411 0.000000 97.943209
    endloop
endfacet
facet normal -0.204760 0.236269 0.949869
    outer loop
        vertex 0.000000 35.682209 93.417236
        vertex -40.354821 32.647736 85.472883
        vertex -20.177411 0.000000 97.943209
    endloop
endfacet
facet normal -0.796265 0.569768 0.203287
    outer loop
        vertex -85.472883 40.354821 32.647736
        vertex -65.295472 73.002557 20.177411
        vertex -85.065081 52.573111 0.000000
    endloop
endfacet
facet normal -0.534910 0.739670 0.408362
    outer loop
        vertex -57.735027 57.735027 57.735027
        vertex -32.647736 85.472883 40.354821
        vertex -65.295472 73.002557 20.177411
    endloop
endfacet
facet normal -0.203287 0.796265 0.569768
    outer loop
        vertex -20.177411 65.295472 73.002557
        vertex 0.000000 85.065081 52.573111
        vertex -32.647736 85.472883 40.354821
    endloop
endfacet
facet normal -0.739670 0.408362 0.534910
    outer loop
        vertex -73.002557 20.177411 65.295472
        vertex -57.735027 57.735027 57.735027
        vertex -85.472883 40.354821 32.647736
    endloop
endfacet
facet normal -0.408362 0.534910 0.739670
    outer loop
        vertex -40.354821 32.647736 85.472883
        vertex -20.177411 65.295472 73.002557
        vertex -57.735027 57.735027 57.735027
    endloop
endfacet
facet normal -0.569768 0.203287 0.796265
    outer loop
        vertex -52.573111 0.000000 85.065081
        vertex -40.354821 32.647736 85.472883
        vertex -73.002557 20.177411 65.295472
    endloop
endfacet
facet normal -0.713600 0.587051 0.382291
    outer loop
        vertex -65.295472 73.002557 20.177411
        vertex -85.472883 40.354821 32.647736
        vertex -57.735027 57.735027 57.735027
    endloop
endfacet
facet normal -0.382291 0.713600 0.587051
    outer loop
        vertex -32.647736 85.472883 40.354821
        vertex -57.735027 57.735027 57.735027
        vertex -20.177411 65.295472 73.002557
    endloop
endfacet
facet normal -0.587051 0.382291 0.713600
    outer loop
        vertex -57.735027 57.735027 57.735027
        vertex -73.002557 20.177411 65.295472
        vertex -40.354821 32.647736 85.472883
    endloop
endfacet
facet normal -0.125638 0.921904 -0.366481
    outer loop
        vertex -32.647736 85.472883 -40.354821
        vertex 0.000000 97.943209 -20.177411
        vertex 0.000000 85.065081 -52.573111
    endloop
endfacet
facet normal -0.125833 0.992051 0.000000
    outer loop
        vertex -35.682209 93.417236 0.000000
        vertex 0.000000 97.943209 20.177411
        vertex 0.000000 97.943209 -20.177411
    endloop
endfacet
facet normal -0.125638 0.921904 0.366481
    outer loop
        vertex -32.647736 85.472883 40.354821
        vertex 0.000000 85.065081 52.573111
        vertex 0.000000 97.943209 20.177411
    endloop
endfacet
facet normal -0.457141 0.865503 -0.204760
    outer loop
        vertex -65.295472 73.002557 -20.177411
        vertex -35.682209 93.417236 0.000000
        vertex -32.647736 85.472883 -40.354821
    endloop
endfacet
facet normal -0.457141 0.865503 0.204760
    outer loop
        vertex -65.295472 73.002557 20.177411
        vertex -32.647736 85.472883 40.354821
        vertex -35.682209 93.417236 0.000000
    endloop
endfacet
facet normal -0.718617 0.695406 0.000000
    outer loop
        vertex -85.065081 52.573111 0.000000
        vertex -65.295472 73.002557 20.177411
        vertex -65.295472 73.002557 -20.177411
    endloop
endfacet
facet normal -0.236269 0.949869 -0.204760
    outer loop
        vertex 0.000000 97.943209 -20.177411
        vertex -32.647736 85.472883 -40.354821
        vertex -35.682209 93.417236 0.000000
    endloop
endfacet
facet normal -0.236269 0.949869 0.204760
    outer loop
        vertex 0.000000 97.943209 20.177411
        vertex -35.682209 93.417236 0.000000
        vertex -32.647736 85.472883 40.354821
    endloop
endfacet
facet normal -0.567577 0.823320 0.000000
    outer loop
        vertex -35.682209 93.417236 0.000000
        vertex -65.295472 73.002557 -20.177411
        vertex -65.295472 73.002557 20.177411
    endloop
endfacet
facet normal 0.125638 0.921904 -0.366481
    outer loop
        vertex 0.000000 97.943209 -20.177411
        vertex 32.647736 85.472883 -40.354821
        vertex 0.000000 85.065081 -52.573111
    endloop
endfacet
facet normal 0.457141 0.865503 -0.204760
    outer loop
        vertex 35.682209 93.417236 0.000000
        vertex 65.295472 73.002557 -20.177411
        vertex 32.647736 85.472883 -40.354821
    endloop
endfacet
facet normal 0.718617 0.695406 -0.000000
    outer loop
        vertex 65.295472 73.002557 20.177411
        vertex 85.065081 52.573111 0.000000
        vertex 65.295472 73.002557 -20.177411
    endloop
endfacet
facet normal 0.125833 0.992051 -0.000000
    outer loop
        vertex 0.000000 97.943209 20.177411
        vertex 35.682209 93.417236 0.000000
        vertex 0.000000 97.943209 -20.177411
    endloop
endfacet
facet normal 0.457141 0.865503 0.204760
    outer loop
        vertex 32.647736 85.472883 40.354821
        vertex 65.295472 73.002557 20.177411
        vertex 35.682209 93.417236 0.000000
    endloop
endfacet
facet normal 0.125638 0.921904 0.366481
    outer loop
        vertex 0.000000 85.065081 52.573111
        vertex 32.647736 85.472883 40.354821
        vertex 0.000000 97.943209 20.177411
    endloop
endfacet
facet normal 0.236269 0.949869 -0.204760
    outer loop
        vertex 32.647736 85.472883 -40.354821
        vertex 0.000000 97.943209 -20.177411
        vertex 35.682209 93.417236 0.000000
    endloop
endfacet
facet normal 0.567577 0.823320 0.000000
    outer loop
        vertex 65.295472 73.002557 -20.177411
        vertex 35.682209 93.417236 0.000000
        vertex 65.295472 73.002557 20.177411
    endloop
endfacet
facet normal 0.236269 0.949869 0.204760
    outer loop
        vertex 35.682209 93.417236 0.000000
        vertex 0.000000 97.943209 20.177411
        vertex 32.647736 85.472883 40.354821
    endloop
endfacet
facet normal 0.796265 0.569768 0.203287
    outer loop
        vertex 65.295472 73.002557 20.177411
        vertex 85.472883 40.354821 32.647736
        vertex 85.065081 52.573111 0.000000
    endloop
endfacet
facet normal 0.739670 0.408362 0.534910
    outer loop
        vertex 57.735027 57.735027 57.735027
        vertex 73.002557 20.177411 65.295472
        vertex 85.472883 40.354821 32.647736
    endloop
endfacet
facet normal 0.569768 0.203287 0.796265
    outer loop
        vertex 40.354821 32.647736 85.472883
        vertex 52.573111 0.000000 85.065081
        vertex 73.002557 20.177411 65.295472
    endloop
endfacet
facet normal 0.534910 0.739670 0.408362
    outer loop
        vertex 32.647736 85.472883 40.354821
        vertex 57.735027 57.735027 57.735027
        vertex 65.295472 73.002557 20.177411
    endloop
endfacet
facet normal 0.408362 0.534910 0.739670
    outer loop
        vertex 20.177411 65.295472 73.002557
        vertex 40.354821 32.647736 85.472883
        vertex 57.735027 57.735027 57.735027
    endloop
endfacet
facet normal 0.203287 0.796265 0.569768
    outer loop
        vertex 0.000000 85.065081 52.573111
        vertex 20.177411 65.295472 73.002557
        vertex 32.647736 85.472883 40.354821
    endloop
endfacet
facet normal 0.713600 0.587051 0.382291
    outer loop
        vertex 85.472883 40.354821 32.647736
        vertex 65.295472 73.002557 20.177411
        vertex 57.735027 57.735027 57.735027
    endloop
endfacet
facet normal 0.587051 0.382291 0.713600
    outer loop
        vertex 73.002557 20.177411 65.295472
        vertex 57.735027 57.735027 57.735027
        vertex 40.354821 32.647736 85.472883
    endloop
endfacet
facet normal 0.382291 0.713600 0.587051
    outer loop
        vertex 57.735027 57.735027 57.735027
        vertex 32.647736 85.472883 40.354821
        vertex 20.177411 65.295472 73.002557
    endloop
endfacet
facet normal 0.921904 -0.366481 0.125638
    outer loop
        vertex 97.943209 -20.177411 0.000000
        vertex 85.472883 -40.354821 32.647736
        vertex 85.065081 -52.573111 0.000000
    endloop
endfacet
facet normal 0.865503 -0.204760 0.457141
    outer loop
        vertex 93.417236 0.000000 35.682209
        vertex 73.002557 -20.177411 65.295472
        vertex 85.472883 -40.354821 32.647736
    endloop
endfacet
facet normal 0.695406 -0.000000 0.718617
    outer loop
        vertex 73.002557 20.177411 65.295472
        vertex 52.573111 0.000000 85.065081
        vertex 73.002557 -20.177411 65.295472
    endloop
endfacet
facet normal 0.992051 -0.000000 0.125833
    outer loop
        vertex 97.943209 20.177411 0.000000
        vertex 93.417236 0.000000 35.682209
        vertex 97.943209 -20.177411 0.000000
    endloop
endfacet
facet normal 0.865503 0.204760 0.457141
    outer loop
        vertex 85.472883 40.354821 32.647736
        vertex 73.002557 20.177411 65.295472
        vertex 93.417236 0.000000 35.682209
    endloop
endfacet
facet normal 0.921904 0.366481 0.125638
    outer loop
        vertex 85.065081 52.573111 0.000000
        vertex 85.472883 40.354821 32.647736
        vertex 97.943209 20.177411 0.000000
    endloop
endfacet
facet normal 0.949869 -0.204760 0.236269
    outer loop
        vertex 85.472883 -40.354821 32.647736
        vertex 97.943209 -20.177411 0.000000
        vertex 93.417236 0.000000 35.682209
    endloop
endfacet
facet normal 0.823320 0.000000 0.567577
    outer loop
        vertex 73.002557 -20.177411 65.295472
        vertex 93.417236 0.000000 35.682209
        vertex 73.002557 20.177411 65.295472
    endloop
endfacet
facet normal 0.949869 0.204760 0.236269
    outer loop
        vertex 93.417236 0.000000 35.682209
        vertex 97.943209 20.177411 0.000000
        vertex 85.472883 40.354821 32.647736
    endloop
endfacet
facet normal 0.695406 0.000000 -0.718617
    outer loop
        vertex 73.002557 20.177411 -65.295472
        vertex 73.002557 -20.177411 -65.295472
        vertex 52.573111 0.000000 -85.065081
    endloop
endfacet
facet normal 0.865503 -0.204760 -0.457141
    outer loop
        vertex 93.417236 0.000000 -35.682209
        vertex 85.472883 -40.354821 -32.647736
        vertex 73.002557 -20.177411 -65.295472
    endloop
endfacet
facet normal 0.921904 -0.366481 -0.125638
    outer loop
        vertex 97.943209 -20.177411 0.000000
        vertex 85.065081 -52.573111 0.000000
        vertex 85.472883 -40.354821 -32.647736
    endloop
endfacet
facet normal 0.865503 0.204760 -0.457141
    outer loop
        vertex 85.472883 40.354821 -32.647736
        vertex 93.417236 0.000000 -35.682209
        vertex 73.002557 20.177411 -65.295472
    endloop
endfacet
facet normal 0.992051 0.000000 -0.125833
    outer loop
        vertex 97.943209 20.177411 0.000000
        vertex 97.943209 -20.177411 0.000000
        vertex 93.417236 0.000000 -35.682209
    endloop
endfacet
facet normal 0.921904 0.366481 -0.125638
    outer loop
        vertex 85.065081 52.573111 0.000000
        vertex 97.943209 20.177411 0.000000
        vertex 85.472883 40.354821 -32.647736
    endloop
endfacet
facet normal 0.823320 0.000000 -0.567577
    outer loop
        vertex 73.002557 -20.177411 -65.295472
        vertex 73.002557 20.177411 -65.295472
        vertex 93.417236 0.000000 -35.682209
    endloop
endfacet
facet normal 0.949869 -0.204760 -0.236269
    outer loop
        vertex 85.472883 -40.354821 -32.647736
        vertex 93.417236 0.000000 -35.682209
        vertex 97.943209 -20.177411 0.000000
    endloop
endfacet
facet normal 0.949869 0.204760 -0.236269
    outer loop
        vertex 93.417236 0.000000 -35.682209
        vertex 85.472883 40.354821 -32.647736
        vertex 97.943209 20.177411 0.000000
    endloop
endfacet
facet normal 0.569768 0.203287 -0.796265
    outer loop
        vertex 40.354821 32.647736 -85.472883
        vertex 73.002557 20.177411 -65.295472
        vertex 52.573111 0.000000 -85.065081
    endloop
endfacet
facet normal 0.739670 0.408362 -0.534910
    outer loop
        vertex 57.735027 57.735027 -57.735027
        vertex 85.472883 40.354821 -32.647736
        vertex 73.002557 20.177411 -65.295472
    endloop
endfacet
facet normal 0.796265 0.569768 -0.203287
    outer loop
        vertex 65.295472 73.002557 -20.177411
        vertex 85.065081 52.573111 0.000000
        vertex 85.472883 40.354821 -32.647736
    endloop
endfacet
facet normal 0.408362 0.534910 -0.739670
    outer loop
        vertex 20.177411 65.295472 -73.002557
        vertex 57.735027 57.735027 -57.735027
        vertex 40.354821 32.647736 -85.472883
    endloop
endfacet
facet normal 0.534910 0.739670 -0.408362
    outer loop
        vertex 32.647736 85.472883 -40.354821
        vertex 65.295472 73.002557 -20.177411
        vertex 57.735027 57.735027 -57.735027
    endloop
endfacet
facet normal 0.203287 0.796265 -0.569768
    outer loop
        vertex 0.000000 85.065081 -52.573111
        vertex 32.647736 85.472883 -40.354821
        vertex 20.177411 65.295472 -73.002557
    endloop
endfacet
facet normal 0.587051 0.382291 -0.713600
    outer loop
        vertex 73.002557 20.177411 -65.295472
        vertex 40.354821 32.647736 -85.472883
        vertex 57.735027 57.735027 -57.735027
    endloop
endfacet
facet normal 0.713600 0.587051 -0.382291
    outer loop
        vertex 85.472883 40.354821 -32.647736
        vertex 57.735027 57.735027 -57.735027
        vertex 65.295472 73.002557 -20.177411
    endloop
endfacet
facet normal 0.382291 0.713600 -0.587051
    outer loop
        vertex 57.735027 57.735027 -57.735027
        vertex 20.177411 65.295472 -73.002557
        vertex 32.647736 85.472883 -40.354821
    endloop
endfacet
facet normal -0.366481 0.125638 -0.921904
    outer loop
        vertex -40.354821 32.647736 -85.472883
        vertex -20.177411 0.000000 -97.943209
        vertex -52.573111 0.000000 -85.065081
    endloop
endfacet
facet normal 0.000000 0.125833 -0.992051
    outer loop
        vertex 0.000000 35.682209 -93.417236
        vertex 20.177411 0.000000 -97.943209
        vertex -20.177411 0.000000 -97.943209
    endloop
endfacet
facet normal 0.366481 0.125638 -0.921904
    outer loop
        vertex 40.354821 32.647736 -85.472883
        vertex 52.573111 0.000000 -85.065081
        vertex 20.177411 0.000000 -97.943209
    endloop
endfacet
facet normal -0.204760 0.457141 -0.865503
    outer loop
        vertex -20.177411 65.295472 -73.002557
        vertex 0.000000 35.682209 -93.417236
        vertex -40.354821 32.647736 -85.472883
    endloop
endfacet
facet normal 0.204760 0.457141 -0.865503
    outer loop
        vertex 20.177411 65.295472 -73.002557
        vertex 40.354821 32.647736 -85.472883
        vertex 0.000000 35.682209 -93.417236
    endloop
endfacet
facet normal 0.000000 0.718617 -0.695406
    outer loop
        vertex 0.000000 85.065081 -52.573111
        vertex 20.177411 65.295472 -73.002557
        vertex -20.177411 65.295472 -73.002557
    endloop
endfacet
facet normal -0.204760 0.236269 -0.949869
    outer loop
        vertex -20.177411 0.000000 -97.943209
        vertex -40.354821 32.647736 -85.472883
        vertex 0.000000 35.682209 -93.417236
    endloop
endfacet
facet normal 0.204760 0.236269 -0.949869
    outer loop
        vertex 20.177411 0.000000 -97.943209
        vertex 0.000000 35.682209 -93.417236
        vertex 40.354821 32.647736 -85.472883
    endloop
endfacet
facet normal 0.000000 0.567577 -0.823320
    outer loop
        vertex 0.000000 35.682209 -93.417236
        vertex -20.177411 65.295472 -73.002557
        vertex 20.177411 65.295472 -73.002557
    endloop
endfacet
facet normal -0.000000 -0.718617 -0.695406
    outer loop
        vertex -20.177411 -65.295472 -73.002557
        vertex 20.177411 -65.295472 -73.002557
        vertex 0.000000 -85.065081 -52.573111
    endloop
endfacet
facet normal 0.204760 -0.457141 -0.865503
    outer loop
        vertex 0.000000 -35.682209 -93.417236
        vertex 40.354821 -32.647736 -85.472883
        vertex 20.177411 -65.295472 -73.002557
    endloop
endfacet
facet normal 0.366481 -0.125638 -0.921904
    outer loop
        vertex 20.177411 0.000000 -97.943209
        vertex 52.573111 0.000000 -85.065081
        vertex 40.354821 -32.647736 -85.472883
    endloop
endfacet
facet normal -0.204760 -0.457141 -0.865503
    outer loop
        vertex -40.354821 -32.647736 -85.472883
        vertex 0.000000 -35.682209 -93.417236
        vertex -20.177411 -65.295472 -73.002557
    endloop
endfacet
facet normal -0.000000 -0.125833 -0.992051
    outer loop
        vertex -20.177411 0.000000 -97.943209
        vertex 20.177411 0.000000 -97.943209
        vertex 0.000000 -35.682209 -93.417236
    endloop
endfacet
facet normal -0.366481 -0.125638 -0.921904
    outer loop
        vertex -52.573111 0.000000 -85.065081
        vertex -20.177411 0.000000 -97.943209
        vertex -40.354821 -32.647736 -85.472883
    endloop
endfacet
facet normal 0.000000 -0.567577 -0.823320
    outer loop
        vertex 20.177411 -65.295472 -73.002557
        vertex -20.177411 -65.295472 -73.002557
        vertex 0.000000 -35.682209 -93.417236
    endloop
endfacet
facet normal 0.204760 -0.236269 -0.949869
    outer loop
        vertex 40.354821 -32.647736 -85.472883
        vertex 0.000000 -35.682209 -93.417236
        vertex 20.177411 0.000000 -97.943209
    endloop
endfacet
facet normal -0.204760 -0.236269 -0.949869
    outer loop
        vertex 0.000000 -35.682209 -93.417236
        vertex -40.354821 -32.647736 -85.472883
        vertex -20.177411 0.000000 -97.943209
    endloop
endfacet
facet normal 0.796265 -0.569768 -0.203287
    outer loop
        vertex 65.295472 -73.002557 -20.177411
        vertex 85.472883 -40.354821 -32.647736
        vertex 85.065081 -52.573111 0.000000
    endloop
endfacet
facet normal 0.739670 -0.408362 -0.534910
    outer loop
        vertex 57.735027 -57.735027 -57.735027
        vertex 73.002557 -20.177411 -65.295472
        vertex 85.472883 -40.354821 -32.647736
    endloop
endfacet
facet normal 0.569768 -0.203287 -0.796265
    outer loop
        vertex 40.354821 -32.647736 -85.472883
        vertex 52.573111 0.000000 -85.065081
        vertex 73.002557 -20.177411 -65.295472
    endloop
endfacet
facet normal 0.534910 -0.739670 -0.408362
    outer loop
        vertex 32.647736 -85.472883 -40.354821
        vertex 57.735027 -57.735027 -57.735027
        vertex 65.295472 -73.002557 -20.177411
    endloop
endfacet
facet normal 0.408362 -0.534910 -0.739670
    outer loop
        vertex 20.177411 -65.295472 -73.002557
        vertex 40.354821 -32.647736 -85.472883
        vertex 57.735027 -57.735027 -57.735027
    endloop
endfacet
facet normal 0.203287 -0.796265 -0.569768
    outer loop
        vertex 0.000000 -85.065081 -52.573111
        vertex 20.177411 -65.295472 -73.002557
        vertex 32.647736 -85.472883 -40.354821
    endloop
endfacet
facet normal 0.713600 -0.587051 -0.382291
    outer loop
        vertex 85.472883 -40.354821 -32.647736
        vertex 65.295472 -73.002557 -20.177411
        vertex 57.735027 -57.735027 -57.735027
    endloop
endfacet
facet normal 0.587051 -0.382291 -0.713600
    outer loop
        vertex 73.002557 -20.177411 -65.295472
        vertex 57.735027 -57.735027 -57.735027
        vertex 40.354821 -32.647736 -85.472883
    endloop
endfacet
facet normal 0.382291 -0.713600 -0.587051
    outer loop
        vertex 57.735027 -57.735027 -57.735027
        vertex 32.647736 -85.472883 -40.354821
        vertex 20.177411 -65.295472 -73.002557
    endloop
endfacet
facet normal 0.125638 -0.921904 0.366481
    outer loop
        vertex 0.000000 -97.943209 20.177411
        vertex 32.647736 -85.472883 40.354821
        vertex 0.000000 -85.065081 52.573111
    endloop
endfacet
facet normal 0.457141 -0.865503 0.204760
    outer loop
        vertex 35.682209 -93.417236 0.000000
        vertex 65.295472 -73.002557 20.177411
        vertex 32.647736 -85.472883 40.354821
    endloop
endfacet
facet normal 0.718617 -0.695406 0.000000
    outer loop
        vertex 65.295472 -73.002557 -20.177411
        vertex 85.065081 -52.573111 0.000000
        vertex 65.295472 -73.002557 20.177411
    endloop
endfacet
facet normal 0.125833 -0.992051 0.000000
    outer loop
        vertex 0.000000 -97.943209 -20.177411
        vertex 35.682209 -93.417236 0.000000
        vertex 0.000000 -97.943209 20.177411
    endloop
endfacet
facet normal 0.457141 -0.865503 -0.204760
    outer loop
        vertex 32.647736 -85.472883 -40.354821
        vertex 65.295472 -73.002557 -20.177411
        vertex 35.682209 -93.417236 0.000000
    endloop
endfacet
facet normal 0.125638 -0.921904 -0.366481
    outer loop
        vertex 0.000000 -85.065081 -52.573111
        vertex 32.647736 -85.472883 -40.354821
        vertex 0.000000 -97.943209 -20.177411
    endloop
endfacet
facet normal 0.236269 -0.949869 0.204760
    outer loop
        vertex 32.647736 -85.472883 40.354821
        vertex 0.000000 -97.943209 20.177411
        vertex 35.682209 -93.417236 0.000000
    endloop
endfacet
facet normal 0.567577 -0.823320 0.000000
    outer loop
        vertex 65.295472 -73.002557 20.177411
        vertex 35.682209 -93.417236 0.000000
        vertex 65.295472 -73.002557 -20.177411
    endloop
endfacet
facet normal 0.236269 -0.949869 -0.204760
    outer loop
        vertex 35.682209 -93.417236 0.000000
        vertex 0.000000 -97.943209 -20.177411
        vertex 32.647736 -85.472883 -40.354821
    endloop
endfacet
facet normal -0.718617 -0.695406 -0.000000
    outer loop
        vertex -65.295472 -73.002557 -20.177411
        vertex -65.295472 -73.002557 20.177411
        vertex -85.065081 -52.573111 0.000000
    endloop
endfacet
facet normal -0.457141 -0.865503 0.204760
    outer loop
        vertex -35.682209 -93.417236 0.000000
        vertex -32.647736 -85.472883 40.354821
        vertex -65.295472 -73.002557 20.177411
    endloop
endfacet
facet normal -0.125638 -0.921904 0.366481
    outer loop
        vertex 0.000000 -97.943209 20.177411
        vertex 0.000000 -85.065081 52.573111
        vertex -32.647736 -85.472883 40.354821
    endloop
endfacet
facet normal -0.457141 -0.865503 -0.204760
    outer loop
        vertex -32.647736 -85.472883 -40.354821
        vertex -35.682209 -93.417236 0.000000
        vertex -65.295472 -73.002557 -20.177411
    endloop
endfacet
facet normal -0.125833 -0.992051 -0.000000
    outer loop
        vertex 0.000000 -97.943209 -20.177411
        vertex 0.000000 -97.943209 20.177411
        vertex -35.682209 -93.417236 0.000000
    endloop
endfacet
facet normal -0.125638 -0.921904 -0.366481
    outer loop
        vertex 0.000000 -85.065081 -52.573111
        vertex 0.000000 -97.943209 -20.177411
        vertex -32.647736 -85.472883 -40.354821
    endloop
endfacet
facet normal -0.567577 -0.823320 0.000000
    outer loop
        vertex -65.295472 -73.002557 20.177411
        vertex -65.295472 -73.002557 -20.177411
        vertex -35.682209 -93.417236 0.000000
    endloop
endfacet
facet normal -0.236269 -0.949869 0.204760
    outer loop
        vertex -32.647736 -85.472883 40.354821
        vertex -35.682209 -93.417236 0.000000
        vertex 0.000000 -97.943209 20.177411
    endloop
endfacet
facet normal -0.236269 -0.949869 -0.204760
    outer loop
        vertex -35.682209 -93.417236 0.000000
        vertex -32.647736 -85.472883 -40.354821
        vertex 0.000000 -97.943209 -20.177411
    endloop
endfacet
facet normal -0.569768 -0.203287 0.796265
    outer loop
        vertex -73.002557 -20.177411 65.295472
        vertex -40.354821 -32.647736 85.472883
        vertex -52.573111 0.000000 85.065081
    endloop
endfacet
facet normal -0.408362 -0.534910 0.739670
    outer loop
        vertex -57.735027 -57.735027 57.735027
        vertex -20.177411 -65.295472 73.002557
        vertex -40.354821 -32.647736 85.472883
    endloop
endfacet
facet normal -0.203287 -0.796265 0.569768
    outer loop
        vertex -32.647736 -85.472883 40.354821
        vertex 0.000000 -85.065081 52.573111
        vertex -20.177411 -65.295472 73.002557
    endloop
endfacet
facet normal -0.739670 -0.408362 0.534910
    outer loop
        vertex -85.472883 -40.354821 32.647736
        vertex -57.735027 -57.735027 57.735027
        vertex -73.002557 -20.177411 65.295472
    endloop
endfacet
facet normal -0.534910 -0.739670 0.408362
    outer loop
        vertex -65.295472 -73.002557 20.177411
        vertex -32.647736 -85.472883 40.354821
        vertex -57.735027 -57.735027 57.735027
    endloop
endfacet
facet normal -0.796265 -0.569768 0.203287
    outer loop
        vertex -85.065081 -52.573111 0.000000
        vertex -65.295472 -73.002557 20.177411
        vertex -85.472883 -40.354821 32.647736
    endloop
endfacet
facet normal -0.587051 -0.382291 0.713600
    outer loop
        vertex -40.354821 -32.647736 85.472883
        vertex -73.002557 -20.177411 65.295472
        vertex -57.735027 -57.735027 57.735027
    endloop
endfacet
facet normal -0.382291 -0.713600 0.587051
    outer loop
        vertex -20.177411 -65.295472 73.002557
        vertex -57.735027 -57.735027 57.735027
        vertex -32.647736 -85.472883 40.354821
    endloop
endfacet
facet normal -0.713600 -0.587051 0.382291
    outer loop
        vertex -57.735027 -57.735027 57.735027
        vertex -85.472883 -40.354821 32.647736
        vertex -65.295472 -73.002557 20.177411
    endloop
endfacet
facet normal 0.366481 -0.125638 0.921904
    outer loop
        vertex 20.177411 0.000000 97.943209
        vertex 40.354821 -32.647736 85.472883
        vertex 52.573111 0.000000 85.065081
    endloop
endfacet
facet normal 0.204760 -0.457141 0.865503
    outer loop
        vertex 0.000000 -35.682209 93.417236
        vertex 20.177411 -65.295472 73.002557
        vertex 40.354821 -32.647736 85.472883
    endloop
endfacet
facet normal 0.000000 -0.718617 0.695406
    outer loop
        vertex -20.177411 -65.295472 73.002557
        vertex 0.000000 -85.065081 52.573111
        vertex 20.177411 -65.295472 73.002557
    endloop
endfacet
facet normal 0.000000 -0.125833 0.992051
    outer loop
        vertex -20.177411 0.000000 97.943209
        vertex 0.000000 -35.682209 93.417236
        vertex 20.177411 0.000000 97.943209
    endloop
endfacet
facet normal -0.204760 -0.457141 0.865503
    outer loop
        vertex -40.354821 -32.647736 85.472883
        vertex -20.177411 -65.295472 73.002557
        vertex 0.000000 -35.682209 93.417236
    endloop
endfacet
facet normal -0.366481 -0.125638 0.921904
    outer loop
        vertex -52.573111 0.000000 85.065081
        vertex -40.354821 -32.647736 85.472883
        vertex -20.177411 0.000000 97.943209
    endloop
endfacet
facet normal 0.204760 -0.236269 0.949869
    outer loop
        vertex 40.354821 -32.647736 85.472883
        vertex 20.177411 0.000000 97.943209
        vertex 0.000000 -35.682209 93.417236
    endloop
endfacet
facet normal 0.000000 -0.567577 0.823320
    outer loop
        vertex 20.177411 -65.295472 73.002557
        vertex 0.000000 -35.682209 93.417236
        vertex -20.177411 -65.295472 73.002557
    endloop
endfacet
facet normal -0.204760 -0.236269 0.949869
    outer loop
        vertex 0.000000 -35.682209 93.417236
        vertex -20.177411 0.000000 97.943209
        vertex -40.354821 -32.647736 85.472883
    endloop
endfacet
facet normal 0.569768 -0.203287 0.796265
    outer loop
        vertex 40.354821 -32.647736 85.472883
        vertex 73.002557 -20.177411 65.295472
        vertex 52.573111 0.000000 85.065081
    endloop
endfacet
facet normal 0.739670 -0.408362 0.534910
    outer loop
        vertex 57.735027 -57.735027 57.735027
        vertex 85.472883 -40.354821 32.647736
        vertex 73.002557 -20.177411 65.295472
    endloop
endfacet
facet normal 0.796265 -0.569768 0.203287
    outer loop
        vertex 65.295472 -73.002557 20.177411
        vertex 85.065081 -52.573111 0.000000
        vertex 85.472883 -40.354821 32.647736
    endloop
endfacet
facet normal 0.408362 -0.534910 0.739670
    outer loop
        vertex 20.177411 -65.295472 73.002557
        vertex 57.735027 -57.735027 57.735027
        vertex 40.354821 -32.647736 85.472883
    endloop
endfacet
facet normal 0.534910 -0.739670 0.408362
    outer loop
        vertex 32.647736 -85.472883 40.354821
        vertex 65.295472 -73.002557 20.177411
        vertex 57.735027 -57.735027 57.735027
    endloop
endfacet
facet normal 0.203287 -0.796265 0.569768
    outer loop
        vertex 0.000000 -85.065081 52.573111
        vertex 32.647736 -85.472883 40.354821
        vertex 20.177411 -65.295472 73.002557
    endloop
endfacet
facet normal 0.587051 -0.382291 0.713600
    outer loop
        vertex 73.002557 -20.177411 65.295472
        vertex 40.354821 -32.647736 85.472883
        vertex 57.735027 -57.735027 57.735027
    endloop
endfacet
facet normal 0.713600 -0.587051 0.382291
    outer loop
        vertex 85.472883 -40.354821 32.647736
        vertex 57.735027 -57.735027 57.735027
        vertex 65.295472 -73.002557 20.177411
    endloop
endfacet
facet normal 0.382291 -0.713600 0.587051
    outer loop
        vertex 57.735027 -57.735027 57.735027
        vertex 20.177411 -65.295472 73.002557
        vertex 32.647736 -85.472883 40.354821
    endloop
endfacet
facet normal -0.695406 0.000000 0.718617
    outer loop
        vertex -73.002557 20.177411 65.295472
        vertex -73.002557 -20.177411 65.295472
        vertex -52.573111 0.000000 85.065081
    endloop
endfacet
facet normal -0.865503 -0.204760 0.457141
    outer loop
        vertex -93.417236 0.000000 35.682209
        vertex -85.472883 -40.354821 32.647736
        vertex -73.002557 -20.177411 65.295472
    endloop
endfacet
facet normal -0.921904 -0.366481 0.125638
    outer loop
        vertex -97.943209 -20.177411 0.000000
        vertex -85.065081 -52.573111 0.000000
        vertex -85.472883 -40.354821 32.647736
    endloop
endfacet
facet normal -0.865503 0.204760 0.457141
    outer loop
        vertex -85.472883 40.354821 32.647736
        vertex -93.417236 0.000000 35.682209
        vertex -73.002557 20.177411 65.295472
    endloop
endfacet
facet normal -0.992051 0.000000 0.125833
    outer loop
        vertex -97.943209 20.177411 0.000000
        vertex -97.943209 -20.177411 0.000000
        vertex -93.417236 0.000000 35.682209
    endloop
endfacet
facet normal -0.921904 0.366481 0.125638
    outer loop
        vertex -85.065081 52.573111 0.000000
        vertex -97.943209 20.177411 0.000000
        vertex -85.472883 40.354821 32.647736
    endloop
endfacet
facet normal -0.823320 0.000000 0.567577
    outer loop
        vertex -73.002557 -20.177411 65.295472
        vertex -73.002557 20.177411 65.295472
        vertex -93.417236 0.000000 35.682209
    endloop
endfacet
facet normal -0.949869 -0.204760 0.236269
    outer loop
        vertex -85.472883 -40.354821 32.647736
        vertex -93.417236 0.000000 35.682209
        vertex -97.943209 -20.177411 0.000000
    endloop
endfacet
facet normal -0.949869 0.204760 0.236269
    outer loop
        vertex -93.417236 0.000000 35.682209
        vertex -85.472883 40.354821 32.647736
        vertex -97.943209 20.177411 0.000000
    endloop
endfacet
facet normal -0.921904 -0.366481 -0.125638
    outer loop
        vertex -97.943209 -20.177411 0.000000
        vertex -85.472883 -40.354821 -32.647736
        vertex -85.065081 -52.573111 0.000000
    endloop
endfacet
facet normal -0.865503 -0.204760 -0.457141
    outer loop
        vertex -93.417236 0.000000 -35.682209
        vertex -73.002557 -20.177411 -65.295472
        vertex -85.472883 -40.354821 -32.647736
    endloop
endfacet
facet normal -0.695406 0.000000 -0.718617
    outer loop
        vertex -73.002557 20.177411 -65.295472
        vertex -52.573111 0.000000 -85.065081
        vertex -73.002557 -20.177411 -65.295472
    endloop
endfacet
facet normal -0.992051 0.000000 -0.125833
    outer loop
        vertex -97.943209 20.177411 0.000000
        vertex -93.417236 0.000000 -35.682209
        vertex -97.943209 -20.177411 0.000000
    endloop
endfacet
facet normal -0.865503 0.204760 -0.457141
    outer loop
        vertex -85.472883 40.354821 -32.647736
        vertex -73.002557 20.177411 -65.295472
        vertex -93.417236 0.000000 -35.682209
    endloop
endfacet
facet normal -0.921904 0.366481 -0.125638
    outer loop
        vertex -85.065081 52.573111 0.000000
        vertex -85.472883 40.354821 -32.647736
        vertex -97.943209 20.177411 0.000000
    endloop
endfacet
facet normal -0.949869 -0.204760 -0.236269
    outer loop
        vertex -85.472883 -40.354821 -32.647736
        vertex -97.943209 -20.177411 0.000000
        vertex -93.417236 0.000000 -35.682209
    endloop
endfacet
facet normal -0.823320 -0.000000 -0.567577
    outer loop
        vertex -73.002557 -20.177411 -65.295472
        vertex -93.417236 0.000000 -35.682209
        vertex -73.002557 20.177411 -65.295472
    endloop
endfacet
facet normal -0.949869 0.204760 -0.236269
    outer loop
        vertex -93.417236 0.000000 -35.682209
        vertex -97.943209 20.177411 0.000000
        vertex -85.472883 40.354821 -32.647736
    endloop
endfacet
facet normal -0.569768 0.203287 -0.796265
    outer loop
        vertex -73.002557 20.177411 -65.295472
        vertex -40.354821 32.647736 -85.472883
        vertex -52.573111 0.000000 -85.065081
    endloop
endfacet
facet normal -0.408362 0.534910 -0.739670
    outer loop
        vertex -57.735027 57.735027 -57.735027
        vertex -20.177411 65.295472 -73.002557
        vertex -40.354821 32.647736 -85.472883
    endloop
endfacet
facet normal -0.203287 0.796265 -0.569768
    outer loop
        vertex -32.647736 85.472883 -40.354821
        vertex 0.000000 85.065081 -52.573111
        vertex -20.177411 65.295472 -73.002557
    endloop
endfacet
facet normal -0.739670 0.408362 -0.534910
    outer loop
        vertex -85.472883 40.354821 -32.647736
        vertex -57.735027 57.735027 -57.735027
        vertex -73.002557 20.177411 -65.295472
    endloop
endfacet
facet normal -0.534910 0.739670 -0.408362
    outer loop
        vertex -65.295472 73.002557 -20.177411
        vertex -32.647736 85.472883 -40.354821
        vertex -57.735027 57.735027 -57.735027
    endloop
endfacet
facet normal -0.796265 0.569768 -0.203287
    outer loop
        vertex -85.065081 52.573111 0.000000
        vertex -65.295472 73.002557 -20.177411
        vertex -85.472883 40.354821 -32.647736
    endloop
endfacet
facet normal -0.587051 0.382291 -0.713600
    outer loop
        vertex -40.354821 32.647736 -85.472883
        vertex -73.002557 20.177411 -65.295472
        vertex -57.735027 57.735027 -57.735027
    endloop
endfacet
facet normal -0.382291 0.713600 -0.587051
    outer loop
        vertex -20.177411 65.295472 -73.002557
        vertex -57.735027 57.735027 -57.735027
        vertex -32.647736 85.472883 -40.354821
    endloop
endfacet
facet normal -0.713600 0.587051 -0.382291
    outer loop
        vertex -57.735027 57.735027 -57.735027
        vertex -85.472883 40.354821 -32.647736
        vertex -65.295472 73.002557 -20.177411
    endloop
endfacet
facet normal -0.569768 -0.203287 -0.796265
    outer loop
        vertex -40.354821 -32.647736 -85.472883
        vertex -73.002557 -20.177411 -65.295472
        vertex -52.573111 0.000000 -85.065081
    endloop
endfacet
facet normal -0.739670 -0.408362 -0.534910
    outer loop
        vertex -57.735027 -57.735027 -57.735027
        vertex -85.472883 -40.354821 -32.647736
        vertex -73.002557 -20.177411 -65.295472
    endloop
endfacet
facet normal -0.796265 -0.569768 -0.203287
    outer loop
        vertex -65.295472 -73.002557 -20.177411
        vertex -85.065081 -52.573111 0.000000
        vertex -85.472883 -40.354821 -32.647736
    endloop
endfacet
facet normal -0.408362 -0.534910 -0.739670
    outer loop
        vertex -20.177411 -65.295472 -73.002557
        vertex -57.735027 -57.735027 -57.735027
        vertex -40.354821 -32.647736 -85.472883
    endloop
endfacet
facet normal -0.534910 -0.739670 -0.408362
    outer loop
        vertex -32.647736 -85.472883 -40.354821
        vertex -65.295472 -73.002557 -20.177411
        vertex -57.735027 -57.735027 -57.735027
    endloop
endfacet
facet normal -0.203287 -0.796265 -0.569768
    outer loop
        vertex 0.000000 -85.065081 -52.573111
        vertex -32.647736 -85.472883 -40.354821
        vertex -20.177411 -65.295472 -73.002557
    endloop
endfacet
facet normal -0.587051 -0.382291 -0.713600
    outer loop
        vertex -73.002557 -20.177411 -65.295472
        vertex -40.354821 -32.647736 -85.472883
        vertex -57.735027 -57.735027 -57.735027
    endloop
endfacet
facet normal -0.713600 -0.587051 -0.382291
    outer loop
        vertex -85.472883 -40.354821 -32.647736
        vertex -57.735027 -57.735027 -57.735027
        vertex -65.295472 -73.002557 -20.177411
    endloop
endfacet
facet normal -0.382291 -0.713600 -0.587051
    outer loop
        vertex -57.735027 -57.735027 -57.735027
        vertex -20.177411 -65.295472 -73.002557
        vertex -32.647736 -85.472883 -40.354821
    endloop
endfacet
endsolid Sphere
